<svg id="Calque_1" data-name="Calque 1" xmlns="http://www.w3.org/2000/svg" xmlns:xlink="http://www.w3.org/1999/xlink" viewBox="0 0 14.5 14.1"><defs><style>.cls-1{opacity:0.67;}.cls-2{fill:url(#Dégradé_sans_nom_3);}.cls-3{fill:url(#Dégradé_sans_nom_4);}.cls-4{fill:url(#Dégradé_sans_nom_3-2);}.cls-5{opacity:0.5;}.cls-6{fill:url(#Dégradé_sans_nom_2);}.cls-7{fill:url(#Dégradé_sans_nom_2-2);}.cls-8{fill:#fff;}.cls-9{fill:#06f;}.cls-10{fill:#fcf;}.cls-11{fill:#ff7bac;}.cls-12{fill:#f36;}</style><linearGradient id="Dégradé_sans_nom_3" x1="8" y1="1.11" x2="8" y2="13.11" gradientUnits="userSpaceOnUse"><stop offset="0" stop-color="#ccc"/><stop offset="1" stop-color="#666"/></linearGradient><linearGradient id="Dégradé_sans_nom_4" x1="4.75" y1="0.25" x2="4.75" y2="4.25" gradientUnits="userSpaceOnUse"><stop offset="0" stop-color="#999"/><stop offset="1" stop-color="#666"/></linearGradient><linearGradient id="Dégradé_sans_nom_3-2" x1="7.25" y1="1.99" x2="7.25" y2="11.99" xlink:href="#Dégradé_sans_nom_3"/><linearGradient id="Dégradé_sans_nom_2" x1="8" y1="4.61" x2="8" y2="14.94" gradientUnits="userSpaceOnUse"><stop offset="0" stop-color="#0cf"/><stop offset="1" stop-color="#06f"/></linearGradient><linearGradient id="Dégradé_sans_nom_2-2" x1="8" y1="4.74" x2="8" y2="14.76" xlink:href="#Dégradé_sans_nom_2"/></defs><g class="cls-1"><path class="cls-2" d="M3,13.12A2.12,2.12,0,0,1,.88,11V5a2.12,2.12,0,0,1,2-2.12V2.75A1.62,1.62,0,0,1,4.5,1.12h2A1.62,1.62,0,0,1,8.12,2.75v.13H13A2.12,2.12,0,0,1,15.12,5v6A2.12,2.12,0,0,1,13,13.12Z" transform="translate(-0.75 -1)"/><path d="M6.5,1.25A1.5,1.5,0,0,1,8,2.75V3h5a2,2,0,0,1,2,2v6a2,2,0,0,1-2,2H3a2,2,0,0,1-2-2V5A2,2,0,0,1,3,3V2.75a1.5,1.5,0,0,1,1.5-1.5h2M6.5,1h-2A1.76,1.76,0,0,0,2.75,2.75h0A2.26,2.26,0,0,0,.75,5v6A2.25,2.25,0,0,0,3,13.25H13A2.25,2.25,0,0,0,15.25,11V5A2.25,2.25,0,0,0,13,2.75H8.25A1.76,1.76,0,0,0,6.5,1Z" transform="translate(-0.75 -1)"/></g><rect class="cls-3" x="2.25" y="0.25" width="5" height="4" rx="1.5"/><rect class="cls-4" x="0.25" y="2" width="14" height="10" rx="2"/><g class="cls-5"><path class="cls-6" d="M7.91,14.84c-.14-.14-3.37-3.41-3.37-6.76a3.46,3.46,0,0,1,6.92,0c0,3.35-3.23,6.62-3.37,6.76L8,14.93Z" transform="translate(-0.75 -1)"/><path d="M8,4.75a3.33,3.33,0,0,1,3.33,3.33c0,3.34-3.33,6.67-3.33,6.67S4.67,11.42,4.67,8.08A3.33,3.33,0,0,1,8,4.75M8,4.5A3.58,3.58,0,0,0,4.42,8.08c0,3.4,3.26,6.71,3.4,6.85L8,15.1l.18-.17c.14-.14,3.4-3.45,3.4-6.85A3.58,3.58,0,0,0,8,4.5Z" transform="translate(-0.75 -1)"/></g><path class="cls-7" d="M11.33,8.08c0,3.34-3.33,6.67-3.33,6.67S4.67,11.42,4.67,8.08a3.33,3.33,0,1,1,6.66,0Z" transform="translate(-0.75 -1)"/><g class="cls-5"><circle class="cls-8" cx="7.25" cy="7.25" r="2.13"/><path class="cls-9" d="M8,6.25a2,2,0,1,1-2,2,2,2,0,0,1,2-2M8,6a2.25,2.25,0,1,0,2.25,2.25A2.25,2.25,0,0,0,8,6Z" transform="translate(-0.75 -1)"/></g><g class="cls-5"><path class="cls-10" d="M12,5.19a.69.69,0,0,1,0-1.38h1a.69.69,0,0,1,0,1.38Z" transform="translate(-0.75 -1)"/><path class="cls-11" d="M13,4a.5.5,0,0,1,0,1H12a.5.5,0,0,1,0-1h1m0-.38H12a.88.88,0,1,0,0,1.76h1a.88.88,0,1,0,0-1.76Z" transform="translate(-0.75 -1)"/></g><circle class="cls-8" cx="7.25" cy="7.25" r="2"/><path class="cls-10" d="M12,5.06a.56.56,0,1,1,0-1.12h1a.56.56,0,1,1,0,1.12Z" transform="translate(-0.75 -1)"/><path class="cls-12" d="M13,4a.5.5,0,0,1,0,1H12a.5.5,0,0,1,0-1h1m0-.12H12a.62.62,0,0,0,0,1.24h1a.62.62,0,0,0,0-1.24Z" transform="translate(-0.75 -1)"/></svg>